<?xml version="1.0" encoding="utf-8"?>
<!-- Generator: Adobe Illustrator 25.4.1, SVG Export Plug-In . SVG Version: 6.00 Build 0)  -->
<svg version="1.1" id="Layer_1" xmlns="http://www.w3.org/2000/svg" xmlns:xlink="http://www.w3.org/1999/xlink" x="0px" y="0px"
	 viewBox="0 0 2103 575" style="enable-background:new 0 0 2103 575;" xml:space="preserve">
<style type="text/css">
	.st0{fill:url(#SVGID_1_);}
	.st1{fill:#F2F2F2;}
	.st2{fill:url(#SVGID_00000056397784828138160140000006326663387627150735_);}
</style>
<linearGradient id="SVGID_1_" gradientUnits="userSpaceOnUse" x1="44" y1="274.7962" x2="465.2554" y2="274.7962">
	<stop  offset="1.271566e-07" style="stop-color:#DA5AFF"/>
	<stop  offset="1" style="stop-color:#6ECDFC"/>
</linearGradient>
<path class="st0" d="M215.2,480.63c-0.45-0.4-0.55-0.49-1-0.88c2.37-10.65,4.43-21.38,7.23-31.92
	c9.74-36.72,19.73-73.38,29.66-110.06c3.35-12.38,6.81-24.73,10.39-37.7c15.92-3.97,31.54-7.87,49.08-12.24
	c-11.66,43.59-22.8,85.24-34.38,128.54c17.64-2.3,32.86-8.54,48.64-12.26c16.05-3.78,31.9-8.38,48.06-12.69
	c14.38-53.48,28.58-106.3,43.05-160.15c-22.96-22.91-46.04-45.95-70.4-70.25c-8.38,25.13-13.34,49.61-20.93,73.65
	c-15.7,3.79-31.04,7.48-48.68,11.74c15.45-58.3,30.44-114.4,45.58-169.93l143.75,143.44c-18.12,67.49-36.85,137.27-55.72,207.57
	c-8.4,2.41-16.39,4.83-24.45,6.99c-27.85,7.43-55.74,14.72-83.6,22.15c-27.33,7.3-54.64,14.69-81.95,22.09
	C218.03,479.12,216.67,480.05,215.2,480.63z M44,331.37c1.91,1.64,3.92,3.17,5.7,4.93c42.86,42.64,85.69,85.31,128.55,127.95
	c2.08,2.07,4.38,3.91,8.01,7.14c14.84-55.2,29.21-108.66,44.02-163.75c-17.41,4.3-33.26,8.22-48.79,12.06
	c-6.23,22.59-12.14,43.99-18.25,66.16c-23.47-23.5-45.92-45.98-68.58-68.66c14.4-53.63,28.66-106.71,43.03-160.21
	c30.82-8.29,61.24-16.47,93.31-25.1c-3.14,16.4-7.59,30.66-11.47,45.06c-3.93,14.57-7.67,29.18-11.47,43.79
	c-3.75,14.41-8.89,28.51-11.31,45.38c17.38-4.42,32.87-8.35,48.04-12.21c16.64-61.98,32.89-122.52,49.65-184.94
	c-66.01,17.51-130.01,34.49-194.23,51.53c-3.19,11.68-6.26,22.68-9.21,33.71c-14.22,53.17-28.39,106.36-42.66,159.52
	c-1.15,4.29-2.88,8.42-4.34,12.62C44,328.01,44,329.69,44,331.37z"/>
<g>
	<path class="st1" d="M651.28,235.69L612.5,396.57h-37.23l15.9-65.96h-73.09l-15.9,65.96h-37.23l38.78-160.88h37.23l-15.29,63.43
		h73.09l15.29-63.43H651.28z"/>
	<path class="st1" d="M773.23,366.69l-7.2,29.88H641.46l38.78-160.88h121.58l-7.2,29.88h-84.58l-8.42,34.93h74.69l-6.98,28.96
		h-74.69l-8.97,37.23H773.23z"/>
	<path class="st1" d="M825.26,235.69h73.09c52.63,0,81.07,31.72,69.32,80.44c-11.74,48.72-55.47,80.44-108.1,80.44h-73.09
		L825.26,235.69z M865.09,366c31.95,0,57.46-19.08,64.88-49.87c7.42-30.8-8.89-49.87-40.84-49.87h-34.01L831.08,366H865.09z"/>
	<path class="st1" d="M1095.83,313.6h34.01l-15.73,65.27c-20.91,13.33-46.99,20.45-69.97,20.45c-50.56,0-79.43-34.7-67.74-83.2
		c11.69-48.49,57.29-83.2,108.54-83.2c28.27,0,49.38,9.65,60.64,27.81l-29.22,22.06c-8.73-12.41-20.9-18.16-37.22-18.16
		c-31.26,0-57.67,20.91-65.04,51.48c-7.26,30.11,8.96,51.48,39.76,51.48c10.11,0,19.98-1.84,30.62-6.89L1095.83,313.6z"/>
	<path class="st1" d="M1234.65,367.57l-6.27,28.89h-93.25l38.78-160.78h87.91l-7.31,30.13h-50.8l-8.42,35h52.75l-5.94,27.92h-53.8
		l-8.97,38.84H1234.65z"/>
</g>
<linearGradient id="SVGID_00000087410819122378323680000017837338234847944874_" gradientUnits="userSpaceOnUse" x1="1241.5702" y1="316.1303" x2="2060" y2="316.1303">
	<stop  offset="1.271566e-07" style="stop-color:#DA5AFF"/>
	<stop  offset="1" style="stop-color:#6ECDFC"/>
</linearGradient>
<path style="fill:url(#SVGID_00000087410819122378323680000017837338234847944874_);" d="M1241.57,252.96 M1252.14,367.57
	 M1261.72,328.73 M1282.46,234.9l32.8-0.6c40.47,0,57.21,16.88,51.14,42.09c-3.9,16.19-15.24,28.68-30.09,35.61
	c16.64,5.78,24.86,19.66,19.96,40.01c-6.75,27.98-32.85,44.59-75.4,44.59h-32.67l6.37-29.34h30.62c19.25,0,31-5.53,34.32-19.28
	c3.26-13.52-5.51-19.46-24.76-19.46l-31.87,0.03l6.27-28.2l25.45,0.27c18.41,0,28.08-1.23,31.17-14.04
	c3.09-12.82-2.78-21.44-21.19-21.44h-29.46L1282.46,234.9z M1370.18,316.13c11.52-47.8,57.29-83.2,108.08-83.2
	c50.56,0,79.55,35.16,67.97,83.2c-11.58,48.03-57.52,83.2-108.08,83.2C1387.36,399.33,1358.65,363.93,1370.18,316.13z
	 M1508.53,316.13c7.37-30.57-9.19-51.48-37.92-51.48c-28.73,0-55.37,20.91-62.74,51.48c-7.37,30.57,9.19,51.48,37.92,51.48
	C1474.52,367.61,1501.16,346.7,1508.53,316.13z M1657.07,362.56h-73.75l-22.27,34.04h-38.76l110.43-160.81h36.76l33.14,160.81
	h-39.68L1657.07,362.56z M1652.74,334.39l-10.67-61.59l-40.36,61.59H1652.74z M1812.59,396.6l-20.13-44.6h-1.83h-32.25l-10.75,44.6
	h-37.35l38.76-160.81h69.61c42.96,0,64.46,22.28,55.77,58.35c-5.81,24.12-22.25,41.81-45.32,50.77l23.61,51.69H1812.59z
	 M1809.3,266.31h-30.48l-13.58,56.34h30.48c22.86,0,36.97-10.62,41.2-28.17C1841.2,276.7,1832.16,266.31,1809.3,266.31z
	 M1915.03,235.79h73.05c52.61,0,81.03,31.7,69.29,80.4c-11.74,48.7-55.45,80.4-108.05,80.4h-73.05L1915.03,235.79z M1954.84,366.08
	c31.95,0,57.47-19.08,64.9-49.89c7.43-30.8-8.89-49.88-40.85-49.88h-34.02l-24.05,99.77H1954.84z"/>
</svg>
